<svg width="52" height="62" viewBox="0 0 52 62" fill="none" xmlns="http://www.w3.org/2000/svg">
<path d="M1 60.0195V21.4061L23.2288 1.57917V36.439H12.1244V24.8252L31.6516 7.37674L51 24.6394V60.0195H24.083" stroke="#DF1174" stroke-width="2" stroke-miterlimit="10" stroke-linecap="round" stroke-linejoin="round"/>
<path d="M35.8629 56.2845C35.3266 56.2845 34.8896 56.2102 34.5519 56.0615C34.2141 55.9129 33.9162 55.7085 33.7175 55.4112L24.0632 42.9984C23.8645 42.7197 23.8248 42.4595 23.9241 42.2737C24.0234 42.0879 24.2221 41.9021 24.5201 41.7906C24.818 41.6791 25.1756 41.6233 25.6126 41.6233C26.1689 41.6233 26.586 41.6977 26.8641 41.8277C27.1422 41.9578 27.4005 42.1622 27.5793 42.4409L36.6178 54.352H35.2869L44.2658 42.4224C44.4843 42.1622 44.7426 41.9578 45.0405 41.8277C45.3385 41.6977 45.7557 41.6233 46.2722 41.6233C46.7092 41.6233 47.0668 41.6791 47.325 41.7906C47.6031 41.9021 47.7819 42.0693 47.8415 42.2737C47.9011 42.4781 47.8415 42.7197 47.623 42.9984L38.0083 55.4112C37.7898 55.6899 37.5117 55.9129 37.174 56.0615C36.8562 56.2102 36.4192 56.2845 35.8629 56.2845Z" fill="#DF1174" stroke="#DF1174" stroke-width="0.1" stroke-miterlimit="10"/>
<path d="M35.6245 28.8947C32.0687 28.8947 29.1684 31.6448 29.1684 35.0453C29.1684 40.0996 34.969 45.0238 35.2272 45.2282C35.3464 45.3211 35.4855 45.3769 35.6245 45.3769C35.7636 45.3769 35.9026 45.3211 36.0218 45.2282C36.2602 45.0238 42.0806 40.0996 42.0806 35.0453C42.0608 31.6448 39.1804 28.8947 35.6245 28.8947ZM35.6245 44.0204C34.3333 42.8311 30.3802 38.8546 30.3802 35.0453C30.3802 32.2766 32.7441 30.0467 35.6245 30.0467C38.505 30.0467 40.8689 32.2952 40.8689 35.0453C40.8689 38.8546 36.8959 42.8311 35.6245 44.0204Z" fill="#DF1174" stroke="#DF1174" stroke-width="0.6" stroke-miterlimit="10"/>
<path d="M35.6245 32.1837C33.9758 32.1837 32.6448 33.4658 32.6448 35.0453C32.6448 36.6248 33.9758 37.9069 35.6245 37.9069C37.2733 37.9069 38.6043 36.6248 38.6043 35.0453C38.6043 33.4658 37.2733 32.1837 35.6245 32.1837ZM35.6245 36.7548C34.6313 36.7548 33.8367 35.9744 33.8367 35.0267C33.8367 34.079 34.6313 33.2986 35.6245 33.2986C36.6178 33.2986 37.4124 34.079 37.4124 35.0267C37.4124 35.9744 36.5979 36.7548 35.6245 36.7548Z" fill="#DF1174" stroke="#DF1174" stroke-width="0.6" stroke-miterlimit="10"/>
</svg>
