<?xml version="1.0" encoding="iso-8859-1"?>
<!-- Uploaded to: SVG Repo, www.svgrepo.com, Generator: SVG Repo Mixer Tools -->
<svg fill="#000000" height="800px" width="800px" version="1.1" id="Layer_1" xmlns="http://www.w3.org/2000/svg" xmlns:xlink="http://www.w3.org/1999/xlink" 
	 viewBox="0 0 512 512" xml:space="preserve">
<g>
	<g>
		<path d="M306.361,365.954l-141.01-133.456c-3.357-3.357-8.393-3.357-11.751,0L12.59,365.954
			c-4.197,4.197-4.197,10.911-2.518,15.948c1.679,5.036,6.715,8.393,12.59,8.393h22.662c5.036,0,10.072-1.679,14.269-5.875
			l99.882-83.934l99.882,84.774c4.197,3.357,10.072,5.036,15.108,5.036h22.662c5.036,0,10.072-3.357,12.59-9.233
			C312.236,376.026,310.557,370.151,306.361,365.954z M273.626,373.508c-1.679,0-3.357-0.839-4.197-1.679l-104.918-88.971
			c-0.839-0.839-3.357-1.679-5.036-1.679s-4.197,0.839-5.875,1.679l-104.918,88.97c-1.679,0.839-2.518,1.679-4.197,1.679H29.377
			l130.098-122.544l129.259,122.544H273.626z"/>
	</g>
</g>
<g>
	<g>
		<path d="M250.964,499.41V360.918c0-2.518-1.679-5.036-3.357-6.715l-14.269-12.59c-0.839-0.839-3.357-1.679-5.036-1.679H89.81
			c-1.679,0-3.357,0-5.036,1.679l-14.269,12.59c-2.518,1.679-3.357,4.197-3.357,6.715V499.41c0,5.036,3.357,8.393,8.393,8.393
			H243.41C248.446,507.803,251.803,504.446,250.964,499.41z M235.016,491.016H83.934V364.275l9.233-7.554h132.616l9.233,7.554
			V491.016z"/>
	</g>
</g>
<g>
	<g>
		<path d="M184.656,415.475h-50.361c-5.036,0-8.393,3.357-8.393,8.393v75.541c0,5.036,3.357,8.393,8.393,8.393h50.361
			c5.036,0,8.393-3.357,8.393-8.393v-75.541C193.049,418.833,189.692,415.475,184.656,415.475z M176.262,491.016h-33.574v-58.754
			h33.574V491.016z"/>
	</g>
</g>
<g>
	<g>
		<path d="M231.659,341.613l-67.987-58.754c-3.357-2.518-7.554-2.518-10.911,0l-67.987,58.754c-2.518,2.518-3.357,5.875-2.518,9.233
			s4.197,5.875,7.554,5.875h136.813c3.357,0,6.715-2.518,7.554-5.875S234.177,344.131,231.659,341.613z M112.472,339.934
			l45.325-39.449l46.164,39.449H112.472z"/>
	</g>
</g>
<g>
	<g>
		<path d="M293.771,130.098c-32.734,0-50.361,17.626-50.361,50.361c0,5.036,3.357,8.393,8.393,8.393s8.393-3.357,8.393-8.393
			c0-23.502,10.072-33.574,33.574-33.574c5.036,0,8.393-3.357,8.393-8.393S298.807,130.098,293.771,130.098z"/>
	</g>
</g>
<g>
	<g>
		<path d="M218.229,138.492c-5.036,0-8.393,3.357-8.393,8.393s3.357,8.393,8.393,8.393c18.466,0,25.18,6.715,25.18,25.18
			c0,5.036,3.357,8.393,8.393,8.393s8.393-3.357,8.393-8.393C260.197,152.761,245.928,138.492,218.229,138.492z"/>
	</g>
</g>
<g>
	<g>
		<path d="M109.115,23.502c-5.036,0-8.393,3.357-8.393,8.393v149.403c0,5.036,3.357,8.393,8.393,8.393s8.393-4.197,8.393-8.393
			V31.895C117.508,26.859,114.151,23.502,109.115,23.502z"/>
	</g>
</g>
<g>
	<g>
		<path d="M109.115,21.823c-5.036,0-8.393,3.357-8.393,8.393c0,14.269-10.911,25.18-25.18,25.18c-5.036,0-8.393,3.357-8.393,8.393
			s3.357,8.393,8.393,8.393c23.502,0,41.967-19.305,41.967-41.967C117.508,25.18,114.151,21.823,109.115,21.823z"/>
	</g>
</g>
<g>
	<g>
		<path d="M109.115,55.397c-5.036,0-8.393,3.357-8.393,8.393c0,23.502-18.466,41.967-41.967,41.967
			c-5.036,0-8.393,3.357-8.393,8.393s3.357,8.393,8.393,8.393c32.734,0,58.754-26.859,58.754-58.754
			C117.508,58.754,114.151,55.397,109.115,55.397z"/>
	</g>
</g>
<g>
	<g>
		<path d="M109.115,88.971c-5.036,0-8.393,3.357-8.393,8.393c0,32.734-26.02,58.754-58.754,58.754c-5.036,0-8.393,3.357-8.393,8.393
			s3.357,8.393,8.393,8.393c41.967,0,75.541-34.413,75.541-75.541C117.508,92.328,114.151,88.971,109.115,88.971z"/>
	</g>
</g>
<g>
	<g>
		<path d="M142.689,55.397c-14.269,0-25.18-10.911-25.18-25.18c0-5.036-3.357-8.393-8.393-8.393s-8.393,3.357-8.393,8.393
			c0,23.502,18.466,41.967,41.967,41.967c5.036,0,8.393-3.357,8.393-8.393S147.725,55.397,142.689,55.397z"/>
	</g>
</g>
<g>
	<g>
		<path d="M159.475,105.757c-23.502,0-41.967-18.466-41.967-41.967c0-5.036-3.357-8.393-8.393-8.393s-8.393,3.357-8.393,8.393
			c0,32.734,26.02,58.754,58.754,58.754c5.036,0,8.393-3.357,8.393-8.393S164.511,105.757,159.475,105.757z"/>
	</g>
</g>
<g>
	<g>
		<path d="M176.262,156.118c-32.734,0-58.754-26.02-58.754-58.754c0-5.036-3.357-8.393-8.393-8.393s-8.393,3.357-8.393,8.393
			c0,41.967,33.574,75.541,75.541,75.541c5.036,0,8.393-3.357,8.393-8.393S181.298,156.118,176.262,156.118z"/>
	</g>
</g>
<g>
	<g>
		<path d="M109.115,148.564c-5.036,0-8.393,3.357-8.393,8.393v130.098c0,5.036,3.357,8.393,8.393,8.393s8.393-4.197,8.393-9.233
			V156.957C117.508,151.921,114.151,148.564,109.115,148.564z"/>
	</g>
</g>
<g>
	<g>
		<path d="M193.049,205.639c-41.967,0-75.541-33.574-75.541-75.541c0-5.036-3.357-8.393-8.393-8.393s-8.393,3.357-8.393,8.393
			c0,51.2,41.128,92.328,92.328,92.328c5.036,0,8.393-3.357,8.393-8.393S198.085,205.639,193.049,205.639z"/>
	</g>
</g>
<g>
	<g>
		<path d="M109.115,121.705c-5.036,0-8.393,3.357-8.393,8.393c0,41.967-33.574,75.541-75.541,75.541
			c-5.036,0-8.393,3.357-8.393,8.393s3.357,8.393,8.393,8.393c51.2,0,92.328-41.128,92.328-92.328
			C117.508,125.062,114.151,121.705,109.115,121.705z"/>
	</g>
</g>
<g>
	<g>
		<path d="M151.921,244.249c-22.662-16.787-34.413-41.128-34.413-72.184c0-5.036-3.357-8.393-8.393-8.393s-8.393,3.357-8.393,8.393
			c0,36.931,14.269,65.469,41.128,85.613c1.679,0.839,3.357,1.679,5.036,1.679c2.518,0,5.036-1.679,6.715-3.357
			C156.957,251.803,155.279,246.767,151.921,244.249z"/>
	</g>
</g>
<g>
	<g>
		<path d="M109.115,163.672c-5.036,0-8.393,3.357-8.393,8.393c0,51.2-41.128,92.328-92.328,92.328c-5.036,0-8.393,3.357-8.393,8.393
			s3.357,8.393,8.393,8.393c60.433,0,109.115-48.682,109.115-109.115C117.508,167.029,114.151,163.672,109.115,163.672z"/>
	</g>
</g>
<g>
	<g>
		<path d="M402.885,166.19c-5.036,0-8.393,3.357-8.393,8.393v149.403c0,5.036,3.357,8.393,8.393,8.393
			c5.036,0,8.393-4.197,8.393-8.393V174.584C411.279,169.548,407.921,166.19,402.885,166.19z"/>
	</g>
</g>
<g>
	<g>
		<path d="M402.885,164.511c-5.036,0-8.393,3.357-8.393,8.393c0,14.269-10.911,25.18-25.18,25.18c-5.036,0-8.393,3.357-8.393,8.393
			s3.357,8.393,8.393,8.393c23.502,0,41.967-19.305,41.967-41.967C411.279,167.869,407.921,164.511,402.885,164.511z"/>
	</g>
</g>
<g>
	<g>
		<path d="M402.885,198.085c-5.036,0-8.393,3.357-8.393,8.393c0,23.502-18.466,41.967-41.967,41.967
			c-5.036,0-8.393,3.357-8.393,8.393s3.357,8.393,8.393,8.393c32.734,0,58.754-26.859,58.754-58.754
			C411.279,201.443,407.921,198.085,402.885,198.085z"/>
	</g>
</g>
<g>
	<g>
		<path d="M402.885,231.659c-5.036,0-8.393,3.357-8.393,8.393c0,32.734-26.02,58.754-58.754,58.754
			c-5.036,0-8.393,3.357-8.393,8.393c0,5.036,3.357,8.393,8.393,8.393c41.967,0,75.541-34.413,75.541-75.541
			C411.279,235.016,407.921,231.659,402.885,231.659z"/>
	</g>
</g>
<g>
	<g>
		<path d="M436.459,198.085c-14.269,0-25.18-10.911-25.18-25.18c0-5.036-3.357-8.393-8.393-8.393c-5.036,0-8.393,3.357-8.393,8.393
			c0,23.502,18.466,41.967,41.967,41.967c5.036,0,8.393-3.357,8.393-8.393S441.495,198.085,436.459,198.085z"/>
	</g>
</g>
<g>
	<g>
		<path d="M453.246,248.446c-23.502,0-41.967-18.466-41.967-41.967c0-5.036-3.357-8.393-8.393-8.393
			c-5.036,0-8.393,3.357-8.393,8.393c0,32.734,26.02,58.754,58.754,58.754c5.036,0,8.393-3.357,8.393-8.393
			S458.282,248.446,453.246,248.446z"/>
	</g>
</g>
<g>
	<g>
		<path d="M470.033,298.807c-32.734,0-58.754-26.02-58.754-58.754c0-5.036-3.357-8.393-8.393-8.393
			c-5.036,0-8.393,3.357-8.393,8.393c0,41.967,33.574,75.541,75.541,75.541c5.036,0,8.393-4.197,8.393-8.393
			C478.426,302.164,475.069,298.807,470.033,298.807z"/>
	</g>
</g>
<g>
	<g>
		<path d="M402.885,289.574c-5.036,0-8.393,3.357-8.393,8.393V499.41c0,5.036,3.357,8.393,8.393,8.393
			c5.036,0,8.393-3.357,8.393-8.393V297.967C411.279,292.931,407.921,289.574,402.885,289.574z"/>
	</g>
</g>
<g>
	<g>
		<path d="M486.82,348.328c-41.967,0-75.541-33.574-75.541-75.541c0-5.036-3.357-8.393-8.393-8.393
			c-5.036,0-8.393,3.357-8.393,8.393c0,51.2,41.128,92.328,92.328,92.328c5.036,0,8.393-3.357,8.393-8.393
			C495.213,351.685,491.856,348.328,486.82,348.328z"/>
	</g>
</g>
<g>
	<g>
		<path d="M402.885,264.393c-5.036,0-8.393,3.357-8.393,8.393c0,41.967-33.574,75.541-75.541,75.541
			c-5.036,0-8.393,3.357-8.393,8.393c0,5.036,3.357,8.393,8.393,8.393c51.2,0,92.328-41.128,92.328-92.328
			C411.279,267.751,407.921,264.393,402.885,264.393z"/>
	</g>
</g>
<g>
	<g>
		<path d="M402.885,306.361c-5.036,0-8.393,3.357-8.393,8.393c0,51.2-41.128,92.328-92.328,92.328c-5.036,0-8.393,3.357-8.393,8.393
			s3.357,8.393,8.393,8.393c60.433,0,109.115-48.682,109.115-109.115C411.279,309.718,407.921,306.361,402.885,306.361z"/>
	</g>
</g>
<g>
	<g>
		<path d="M503.607,407.082c-51.2,0-92.328-41.128-92.328-92.328c0-5.036-3.357-8.393-8.393-8.393c-5.036,0-8.393,3.357-8.393,8.393
			c0,60.433,48.682,109.115,109.115,109.115c5.036,0,8.393-3.357,8.393-8.393S508.643,407.082,503.607,407.082z"/>
	</g>
</g>
<g>
	<g>
		<path d="M503.607,440.656H302.164c-5.036,0-8.393,3.357-8.393,8.393c0,5.036,3.357,8.393,8.393,8.393h201.443
			c5.036,0,8.393-3.357,8.393-8.393C512,444.013,508.643,440.656,503.607,440.656z"/>
	</g>
</g>
<g>
	<g>
		<path d="M503.607,474.229H302.164c-5.036,0-8.393,3.357-8.393,8.393s3.357,8.393,8.393,8.393h201.443
			c5.036,0,8.393-3.357,8.393-8.393S508.643,474.229,503.607,474.229z"/>
	</g>
</g>
<g>
	<g>
		<path d="M352.525,432.262c-5.036,0-8.393,3.357-8.393,8.393v58.754c0,5.036,3.357,8.393,8.393,8.393
			c5.036,0,8.393-3.357,8.393-8.393v-58.754C360.918,435.62,357.561,432.262,352.525,432.262z"/>
	</g>
</g>
<g>
	<g>
		<path d="M453.246,432.262c-5.036,0-8.393,3.357-8.393,8.393v58.754c0,5.036,3.357,8.393,8.393,8.393
			c5.036,0,8.393-3.357,8.393-8.393v-58.754C461.639,435.62,458.282,432.262,453.246,432.262z"/>
	</g>
</g>
<g>
	<g>
		<path d="M419.672,46.164c-27.698,0-50.361,22.662-50.361,50.361s22.662,50.361,50.361,50.361s50.361-22.662,50.361-50.361
			S447.37,46.164,419.672,46.164z M419.672,130.098c-18.466,0-33.574-15.108-33.574-33.574s15.108-33.574,33.574-33.574
			s33.574,15.108,33.574,33.574S438.138,130.098,419.672,130.098z"/>
	</g>
</g>
<g>
	<g>
		<path d="M419.672,4.197c-5.036,0-8.393,3.357-8.393,8.393v16.787c0,5.036,3.357,8.393,8.393,8.393s8.393-3.357,8.393-8.393V12.59
			C428.066,7.554,424.708,4.197,419.672,4.197z"/>
	</g>
</g>
<g>
	<g>
		<path d="M503.607,88.131H486.82c-5.036,0-8.393,3.357-8.393,8.393s3.357,8.393,8.393,8.393h16.787
			c5.036,0,8.393-3.357,8.393-8.393S508.643,88.131,503.607,88.131z"/>
	</g>
</g>
<g>
	<g>
		<path d="M352.525,88.131h-16.787c-5.036,0-8.393,3.357-8.393,8.393s3.357,8.393,8.393,8.393h16.787
			c5.036,0,8.393-3.357,8.393-8.393S357.561,88.131,352.525,88.131z"/>
	</g>
</g>
<g>
	<g>
		<path d="M485.141,31.056c-3.357-3.357-8.393-3.357-11.751,0l-11.751,11.751c-3.357,3.357-3.357,8.393,0,11.751
			c1.679,1.679,3.357,2.518,5.875,2.518c1.679,0,4.197-0.839,5.875-2.518l11.751-11.751
			C488.498,39.449,488.498,34.413,485.141,31.056z"/>
	</g>
</g>
<g>
	<g>
		<path d="M377.705,138.492c-3.357-3.357-8.393-3.357-11.751,0l-11.751,11.751c-3.357,3.357-3.357,8.393,0,11.751
			c1.679,1.679,3.357,2.518,5.875,2.518c2.518,0,4.197-0.839,5.875-2.518l11.751-11.751
			C381.062,146.885,381.062,141.849,377.705,138.492z"/>
	</g>
</g>
<g>
	<g>
		<path d="M485.141,150.243l-11.751-11.751c-3.357-3.357-8.393-3.357-11.751,0c-3.357,3.357-3.357,8.393,0,11.751l11.751,11.751
			c1.679,1.679,3.357,2.518,5.875,2.518c1.679,0,4.197-0.839,5.875-2.518C488.498,158.636,488.498,153.6,485.141,150.243z"/>
	</g>
</g>
<g>
	<g>
		<path d="M377.705,42.807l-11.751-11.751c-3.357-3.357-8.393-3.357-11.751,0c-3.357,3.357-3.357,8.393,0,11.751l11.751,11.751
			c1.679,1.679,3.357,2.518,5.875,2.518c2.518,0,5.036-0.839,5.875-2.518C381.062,51.2,381.062,46.164,377.705,42.807z"/>
	</g>
</g>
</svg>